<svg width="175" height="41" viewBox="0 0 175 41" fill="none" xmlns="http://www.w3.org/2000/svg">
<path d="M6.59316 11.1055C6.50295 10.7617 6.76245 10.4255 7.11806 10.4255C7.36283 10.4255 7.5773 10.5893 7.64164 10.8253L11.1053 23.5335C11.2339 24.0053 11.9052 24.0004 12.0269 23.5267L16.4743 6.21456C16.5485 5.92591 16.9597 5.92908 17.0294 6.21884L21.1977 23.5497C21.3133 24.0302 21.994 24.0388 22.1217 23.5614L25.5277 10.8277C25.5912 10.5905 25.8062 10.4255 26.0518 10.4255C26.4068 10.4255 26.6661 10.7606 26.5769 11.1041L21.9673 28.8427C21.8803 29.1775 21.4037 29.1748 21.3205 28.839L16.9849 11.3456C16.9255 11.1062 16.5858 11.1037 16.523 11.3423L11.9037 28.8872C11.8164 29.2188 11.3453 29.2186 11.2583 28.8869L6.59316 11.1055Z" fill="#2650BE"/>
<path d="M3.71355 18.521C3.71355 18.2579 3.92697 18.0446 4.19024 18.0446H29.2955C29.5588 18.0446 29.7722 18.2579 29.7722 18.521C29.7722 18.7842 29.5588 18.9975 29.2955 18.9975H4.19024C3.92697 18.9975 3.71355 18.7842 3.71355 18.521Z" fill="#2650BE"/>
<path d="M0.853455 21.0621C0.853455 20.799 1.06687 20.5857 1.33014 20.5857H32.1556C32.4189 20.5857 32.6323 20.799 32.6323 21.0621C32.6323 21.3253 32.4189 21.5386 32.1556 21.5386H1.33014C1.06687 21.5386 0.853455 21.3253 0.853455 21.0621Z" fill="#2650BE"/>
<path d="M41.4803 11.181H42.7562L47.6471 26.2189L54.0531 10.2245L60.0603 26.2189L65.6158 11.181H66.8916L60.0603 29.5665L54.0531 13.4659L47.461 29.5665L41.4803 11.181Z" fill="#2650BE"/>
<path d="M78.901 23.6151H69.6243C69.6243 24.9613 70.0407 26.0595 70.8736 26.9097C71.7242 27.7599 72.7431 28.185 73.9304 28.185C74.781 28.185 75.5341 27.9636 76.1898 27.5207C76.8454 27.0602 77.3505 26.458 77.7049 25.7141L78.6086 26.2454C78.2011 27.0248 77.6074 27.7156 76.8277 28.3178C76.048 28.9023 75.0557 29.1946 73.8507 29.1946C72.2026 29.1946 70.9002 28.6632 69.9433 27.6005C68.9863 26.52 68.5079 25.165 68.5079 23.5354C68.5079 21.7465 69.0218 20.3472 70.0496 19.3376C71.0951 18.328 72.3355 17.8232 73.7709 17.8232C75.2417 17.8232 76.4644 18.3634 77.4391 19.4439C78.4137 20.5243 78.901 21.9148 78.901 23.6151ZM69.704 22.6055H77.7846C77.6429 21.5074 77.1998 20.604 76.4556 19.8955C75.729 19.187 74.8341 18.8328 73.7709 18.8328C72.6899 18.8328 71.7773 19.1959 71.0331 19.9221C70.2888 20.6306 69.8458 21.5251 69.704 22.6055Z" fill="#2650BE"/>
<path d="M95.6576 28.9023L93.2919 23.0838H85.7429L83.3772 28.9023H82.1013L89.5706 10.6496L96.9335 28.9023H95.6576ZM86.1682 22.021H92.8666L89.544 13.6253L86.1682 22.021Z" fill="#2650BE"/>
<path d="M100.813 28.9023V18.0623H101.876V19.4704C102.354 18.3723 103.152 17.8232 104.268 17.8232C104.693 17.8232 105.074 17.9117 105.411 18.0889L104.88 19.0453C104.685 18.9036 104.419 18.8328 104.082 18.8328C103.568 18.8328 103.143 18.9833 102.806 19.2844C102.487 19.5678 102.266 19.9752 102.142 20.5066C102.035 21.0203 101.964 21.4542 101.929 21.8085C101.894 22.1627 101.876 22.5878 101.876 23.0838V28.9023H100.813Z" fill="#2650BE"/>
<path d="M119.014 23.6151H109.738C109.738 24.9613 110.154 26.0595 110.987 26.9097C111.837 27.7599 112.856 28.185 114.044 28.185C114.894 28.185 115.647 27.9636 116.303 27.5207C116.959 27.0602 117.464 26.458 117.818 25.7141L118.722 26.2454C118.314 27.0248 117.721 27.7156 116.941 28.3178C116.161 28.9023 115.169 29.1946 113.964 29.1946C112.316 29.1946 111.013 28.6632 110.057 27.6005C109.1 26.52 108.621 25.165 108.621 23.5354C108.621 21.7465 109.135 20.3472 110.163 19.3376C111.208 18.328 112.449 17.8232 113.884 17.8232C115.355 17.8232 116.578 18.3634 117.552 19.4439C118.527 20.5243 119.014 21.9148 119.014 23.6151ZM109.817 22.6055H117.898C117.756 21.5074 117.313 20.604 116.569 19.8955C115.842 19.187 114.947 18.8328 113.884 18.8328C112.803 18.8328 111.891 19.1959 111.146 19.9221C110.402 20.6306 109.959 21.5251 109.817 22.6055Z" fill="#2650BE"/>
<path d="M121.384 11.181H122.66L127.551 26.2189L133.957 10.2245L139.964 26.2189L145.519 11.181H146.795L139.964 29.5665L133.957 13.4659L127.365 29.5665L121.384 11.181Z" fill="#2650BE"/>
<path d="M157.928 19.9487V18.0623H158.991V28.9023H157.928V26.9628C156.953 28.4507 155.544 29.1946 153.701 29.1946C152.23 29.1946 150.981 28.6721 149.953 27.627C148.925 26.582 148.412 25.2004 148.412 23.4823C148.412 21.7996 148.899 20.4358 149.874 19.3907C150.848 18.3457 152.124 17.8232 153.701 17.8232C155.509 17.8232 156.917 18.5317 157.928 19.9487ZM153.754 18.8328C152.603 18.8328 151.61 19.249 150.777 20.0815C149.944 20.8963 149.528 22.0033 149.528 23.4026C149.528 24.6956 149.909 25.8204 150.671 26.7768C151.433 27.7156 152.47 28.185 153.781 28.185C155.075 28.185 156.093 27.7244 156.838 26.8034C157.6 25.8646 157.981 24.731 157.981 23.4026C157.981 21.9325 157.547 20.8077 156.678 20.0284C155.81 19.2313 154.835 18.8328 153.754 18.8328Z" fill="#2650BE"/>
<path d="M165.307 35.0131L167.859 29.0883L162.702 18.0623H163.925L168.47 27.7067L172.431 18.0623H173.653L166.53 35.0131H165.307Z" fill="#2650BE"/>
</svg>
